<svg xmlns="http://www.w3.org/2000/svg" xmlns:xlink="http://www.w3.org/1999/xlink" viewBox="0 0 960 420" width="960" height="420" font-family="'Segoe UI', 'Helvetica Neue', Arial, sans-serif">
  <defs>
    <filter id="shadowL">
      <feDropShadow dx="0" dy="1" stdDeviation="2" flood-color="#000" flood-opacity="0.08"/>
    </filter>
    <linearGradient id="fleetGrad" x1="0%" y1="0%" x2="100%" y2="0%">
      <stop offset="0%" stop-color="#1a5276"/>
      <stop offset="100%" stop-color="#2471a3"/>
    </linearGradient>
  </defs>

  <!-- Background -->
  <rect width="960" height="420" rx="8" fill="#f8f9fa"/>
  <rect x="1" y="1" width="958" height="418" rx="7" fill="none" stroke="#dee2e6" stroke-width="1"/>

  <!-- Title -->
  <text x="435" y="38" text-anchor="middle" fill="#2c3e50" font-size="16" font-weight="600" letter-spacing="1.5">THE FLEET &amp; DRIVER HIERARCHY</text>
  <line x1="180" y1="50" x2="690" y2="50" stroke="#dee2e6" stroke-width="1"/>

  <!-- Layer 3: Apprentice / Sandbox (Top - smallest) -->
  <rect x="240" y="75" width="420" height="70" rx="6" fill="#f5f5f5" stroke="#bdc3c7" stroke-width="1.5" filter="url(#shadowL)"/>
  <text x="450" y="105" text-anchor="middle" fill="#7f8c8d" font-size="11" font-weight="600" letter-spacing="1">APPRENTICE / SANDBOX</text>
  <text x="450" y="125" text-anchor="middle" fill="#95a5a6" font-size="10">The Learner -- No licence required, sandbox access only</text>

  <!-- Layer 2: Principal Operator Licence (Middle) -->
  <rect x="160" y="160" width="580" height="70" rx="6" fill="#e3f2fd" stroke="#2980b9" stroke-width="2" filter="url(#shadowL)"/>
  <text x="450" y="190" text-anchor="middle" fill="#1a5a7a" font-size="11" font-weight="600" letter-spacing="1">PRINCIPAL OPERATOR LICENCE</text>
  <text x="450" y="210" text-anchor="middle" fill="#4a7a9a" font-size="10">The Driver -- Competency assessed, KYC verified, deploys to production</text>

  <!-- Layer 1: Corporate Operating Permit (Base - widest) -->
  <rect x="80" y="245" width="740" height="70" rx="6" fill="url(#fleetGrad)" filter="url(#shadowL)"/>
  <text x="450" y="275" text-anchor="middle" fill="#fff" font-size="11" font-weight="600" letter-spacing="1">CORPORATE OPERATING PERMIT</text>
  <text x="450" y="295" text-anchor="middle" fill="#aed6f1" font-size="10">The Fleet -- Holds insurance, accountable for deployed systems</text>

  <!-- Hierarchy arrows -->
  <line x1="450" y1="145" x2="450" y2="160" stroke="#95a5a6" stroke-width="1.5" stroke-dasharray="4,3"/>
  <line x1="450" y1="230" x2="450" y2="245" stroke="#95a5a6" stroke-width="1.5" stroke-dasharray="4,3"/>

  <!-- Insurance Wrapper bracket (right side) -->
  <line x1="855" y1="75" x2="855" y2="315" stroke="#27ae60" stroke-width="2.5"/>
  <line x1="840" y1="75" x2="855" y2="75" stroke="#27ae60" stroke-width="2.5"/>
  <line x1="840" y1="315" x2="855" y2="315" stroke="#27ae60" stroke-width="2.5"/>
  <text x="875" y="200" text-anchor="middle" fill="#27ae60" font-size="12" font-weight="600" letter-spacing="1" transform="rotate(90, 875, 200)">INSURANCE WRAPPER</text>

  <!-- Explanatory annotations -->
  <text x="435" y="347" text-anchor="middle" fill="#7f8c8d" font-size="11">Juniors write the code. Licensed operators deploy it. The corporation insures it.</text>
  <text x="435" y="365" text-anchor="middle" fill="#7f8c8d" font-size="11">The same model used in civil engineering, architecture, and logistics for centuries.</text>

  <!-- Section label -->
  <text x="435" y="395" text-anchor="middle" fill="#bdc3c7" font-size="10" letter-spacing="3">FLEET &amp; DRIVER MODEL</text>

  <!-- Watermark -->
  <svg x="840" y="370" width="100" height="40" viewBox="0 0 493 276" preserveAspectRatio="xMidYMid meet" opacity="0.15">
    <style>svg svg path, svg svg polygon { fill: #2c3e50 !important; }</style>
    <g>
      <path d="M282.938 76.16c-11.365-3.834-22.905-7.044-34.548-9.895-1.827-.447-3.645-.659-5.585-.163-11.845 3.03-23.664 6.137-35.326 9.831-2.069.655-2.862 1.573-2.771 3.721.275 6.565.188 13.152.639 19.702.693 10.094 1.69 20.132 7.176 29.112 7.44 12.182 18.642 19.945 30.744 26.713 1.549.865 2.854.198 4.259-.523 5.835-2.999 10.931-7.071 15.871-11.272 8.58-7.298 17.11-14.744 19.853-26.458 1.998-8.531 2.65-17.211 3.087-25.947 0-3.284-.199-6.583.06-9.847.221-2.808-.937-4.123-3.459-4.974m-5.239 39.743c-1.383 7.313-5.351 13.211-11.223 17.847-2.055 1.622-3.932 3.479-5.818 5.303-.837.81-1.557 1.662-3.104 1.188-.447-3.688-.187-7.444-.025-11.199.058-1.318 1.021-1.89 1.973-2.568 5.407-3.857 7.175-9.276 6.497-15.66-.212-1.991-.013-3.416 2.459-3.732 3.51-.447 4.896-2.947 4.892-6.166-.005-3.559-1.766-5.887-5.396-6.762-3.169-.764-5.711.238-7.442 2.741-1.916 2.77-1.688 5.715.571 8.334.656.761 1.458 1.396 2.294 2.184.592.858-.716 1.431-.58 2.299 1.05 6.686-2.059 11.237-7.56 14.457-1.484.869-1.512 2.116-1.526 3.489-.047 4.297-.416 8.623-.038 12.882.38 4.288-2.666 5.269-5.947 7.936-.018-23.801.188-46.487-.792-69.141l-1.673-.025-.815 69.982c-4.178-.903-5.996-2.526-5.722-6.498.348-5.031-.125-10.118.181-15.155.188-3.095-.413-5.524-3.212-6.951-5.256-2.68-6.771-6.976-5.938-12.532.24-1.604.111-3.291-.053-4.92-.267-2.648.117-4.621 2.643-6.407 3.515-2.486 3.563-7.791.667-10.735-2.911-2.959-7.188-2.796-10.428.397-2.839 2.798-2.947 7.357.503 9.975 2.718 2.062 2.691 4.393 2.84 7.213.264 4.98-1.148 10.107 1.133 14.934l.467.755c6.415 3.025 9.425 7.771 8.142 15.075-.47 2.67-.076 5.492-.076 7.978-.785.616-1.271.587-1.718.287-8.814-5.902-15.867-13.389-19.608-23.426-2.42-6.494-2.558-13.514-3.403-20.349-.697-5.63-1.064-11.274-.767-17.274 7.436-2.997 15.245-5.305 23.151-7.354 2.695-.697 5.487-.987 8.015-2.511 1.422-.857 3.169-1.178 5.228-.438 9.848 3.54 20.318 4.89 30.205 8.422 3.27 1.169 4.07 2.933 4.043 6.141-.09 10.099-1.17 20.095-3.04 29.984m-14.747-14.914c.073-2.136 1.238-3.65 3.478-3.596 1.979.047 3.123 1.351 3.34 3.463-.449 1.868-1.168 3.627-3.551 3.489-1.979-.115-3.34-1.235-3.267-3.356m-35.158-6.012c-2.085-.186-3.654-1.329-3.517-3.633.14-2.331 1.738-3.846 3.953-3.729 2.108.11 2.885 2.089 3.396 3.592-.427 2.544-1.541 3.974-3.832 3.77"/>
      <path d="M308.198 194.725v-5.577c4.492 0 8.986.021 13.479-.013 1.253-.01 2.551-.004 3.746-.318 1.609-.422 2.565-1.58 2.439-3.358-.126-1.77-1.383-2.291-2.881-2.361-3.147-.146-6.304-.15-9.448-.34-5.086-.306-7.323-2.857-7.249-8.1.08-5.651 2.631-8.514 7.761-8.559 5.898-.05 11.798-.012 17.552-.012.784 1.861.227 3.209.317 5.243-5.156 0-10.26-.009-15.363.007-1.239.004-2.545-.194-3.455 1.023-1.484 1.984-.354 4.664 2.179 4.98 3.619.453 7.281-.403 10.917.563 4.968 1.319 6.299 3.095 6.004 8.774-.252 4.838-2.389 7.382-6.889 7.972-6.283.824-12.566.312-19.109.076m-60.504.107v-5.61c4.655 0 9.396-.01 14.139.005 2.071.006 4.328.15 4.454-2.736.122-2.787-1.699-3.594-4.194-3.597-3.023-.004-6.054-.048-9.068-.259-3.39-.237-5.123-2.17-5.508-5.585-.954-8.477 1.265-10.997 9.848-10.965 4.505.018 9.01.004 13.635.004v5.347c-4.237 0-8.347-.004-12.457.002-1.009.001-2.067-.159-3.016.091-1.591.418-3.109 1.028-2.866 3.248.247 2.253 1.73 2.4 3.505 2.457 3.507.11 7.043-.292 10.494.846 4.198 1.386 5.355 3.451 5.059 9.596-.21 4.334-1.784 6.361-5.938 6.97-5.886.862-11.797.378-18.087.186m-85.459-22.635c-4.683 0-8.967-.033-13.25.009-4.844.047-5.039.313-4.375 5.819h15.892c.805 1.915.633 3.362.33 4.719-4.229 0-8.368.035-12.508-.013-2.244-.027-4.282-.282-4.211 3.141.063 3.041 1.506 3.526 4.054 3.454 4.539-.129 9.085-.036 13.559-.036 1.564 4.925 1.13 5.684-3.457 5.716-4.168.028-8.351.047-12.502-.26-4.812-.356-7.141-2.688-7.389-7.477-.254-4.917-.202-9.857-.101-14.783.065-3.167 3.636-5.989 8.147-6.193 5.161-.233 10.342-.054 15.557-.054.868 1.86.338 3.553.254 5.958m201.433-1.851c-1.409 2.021-3.482.887-5.235 1-3.142.203-6.309-.001-9.453.166-1.555.082-2.95.689-2.928 2.734.023 2.217 1.516 2.297 3.109 2.307 2.901.015 5.817.214 8.7-.013 3.554-.279 4.499 1.285 3.607 5.1-3.669 0-7.521.019-11.372-.008-2.435-.017-4.219.527-4.128 3.55.084 2.808 1.239 4.137 4.162 4.062 4.524-.115 9.055-.029 13.819-.029v5.416c-6.453.402-13.059.914-19.549-.607-2.736-.643-4.134-3.126-4.445-5.991-.52-4.787-.459-9.588.104-14.354.606-5.133 3.416-7.441 8.662-7.469 4.037-.021 8.074-.032 12.111-.016 1.328.006 2.983-.371 2.809 1.899-.041.751-.044 1.502.027 2.253m29.172-4.164v5.183c-3.798 0-7.428-.055-11.056.015-4.357.082-5.541 1.325-5.594 5.726-.031 2.652-.047 5.305.014 7.956.065 2.906 1.461 4.302 4.524 4.185 4.012-.153 8.033-.038 12.248-.038v5.047c-5.513 0-10.809.348-16.034-.105-4.438-.387-6.572-3.214-6.662-7.607a387 387 0 0 1-.033-14.771c.064-3.712 1.749-5.468 5.489-5.555 5.663-.132 11.331-.036 17.104-.036m-100.189 28.611c-2.435-.788-4.113-1.058-6.158.383 0-6.906-.154-13.146.065-19.373.108-3.065-.604-4.606-3.929-3.945-.484.096-1.005.012-1.509.013-4.901.009-4.901.009-4.774-5.395h26.278v4.532c-2.224.808-4.504.34-6.723.267-2.389-.079-3.368.62-3.305 3.196.162 6.531.055 13.068.055 20.322m-87.542-9.374v-19h6.292c0 5.72.01 11.337-.003 16.953-.013 5.804.035 5.855 5.927 5.848q4.54-.008 9.081.019c.237.001.476.139.823.247.753 1.487.357 3.084.229 5.11-6.139.413-12.26.656-18.313-.383-2.719-.468-3.094-3.317-3.861-5.545-.236-1.073-.195-2.161-.175-3.249M234.273 195v-27.94c1.853-.779 3.713-.209 5.96-.554 0 9.04.291 17.826-.141 26.577-.177 3.569-3.533 1.137-5.819 1.917"/>
      <path d="m108.245 194.728-.132-7.454c-.017-1.006.229-1.739 1.484-1.408-.677 2.919 1.296 6.242-1.352 8.862"/>
      <path d="M125.829 184.673c4.561-2.551 6.514-6.357 5.364-11.508-1.116-5.007-5.168-5.979-9.437-6.548a9.4 9.4 0 0 1-1.603-.193l-10.297-.393c-2.055-.306-3.773-.228-6.22-.073-1.492.931-1.022 2.433-1.033 3.75-.051 6.265-.123 12.529-.027 18.792.031 2.054-.683 4.2.354 6.228h5.313c.723-1.253.382-2.641.532-3.969.185-1.643-.665-3.47.82-4.894 8.16-2.082 7.781-1.822 11.697 5.169 2.377 4.242 5.591 4.22 9.671 3.588-1.264-3.559-4.133-5.992-5.495-9.222.145-.303.189-.63.361-.727m-4.102-4.475c-1.762.042-3.525.008-5.289.008v.034c-1.008 0-2.015.004-3.022-.001-4.621-.019-5.061-.581-4.607-5.28.157-1.631.657-2.615 2.464-2.593 3.525.047 7.052.005 10.576.064 2.527.043 3.528 1.494 3.501 3.923-.029 2.451-1.147 3.785-3.623 3.845m67.411-10.51c-.557-1.377-.115-4.41-2.809-3.422-2.893 1.062-6.982-.998-8.681 3.44-2.655 6.944-5.624 13.769-8.354 20.686-.519 1.315-1.849 2.44-1.188 4.576 2.127-.869 5.373 1.59 6.321-2.134 1.048-4.113 3.538-4.872 7.193-4.517 2.377.23 4.793.115 7.189.061 1.611-.037 2.661.486 2.955 2.186.81 4.676 3.912 4.802 7.82 3.809-2.873-8.775-7.146-16.523-10.446-24.685m-10.942 14.002 5.142-12.93c2.542 4.396 4.039 8.057 5.405 12.167-3.4 1.234-6.621.41-10.547.763"/>
      <path d="m245.413 150.669.654-71.9.648 71.022-.874.878z"/>
      <path d="m245.341 150.669.655-71.9.648 70.966-.885.934z"/>
    </g>
  </svg>
</svg>
